<?xml version="1.0" encoding="UTF-8"?>
<!DOCTYPE svg PUBLIC "-//W3C//DTD SVG 1.1//EN" "http://www.w3.org/Graphics/SVG/1.1/DTD/svg11.dtd">
<!-- Creator: CorelDRAW 2019 (64-Bit) -->
<svg xmlns="http://www.w3.org/2000/svg" xml:space="preserve" width="1000px" height="1000px" version="1.1" style="shape-rendering:geometricPrecision; text-rendering:geometricPrecision; image-rendering:optimizeQuality; fill-rule:evenodd; clip-rule:evenodd"
viewBox="0 0 1000 1000"
 xmlns:xlink="http://www.w3.org/1999/xlink"
 xmlns:xodm="http://www.corel.com/coreldraw/odm/2003">
 <defs>
  <style type="text/css">
   <![CDATA[
    .fil0 {fill:none}
    .fil1 {fill:black}
   ]]>
  </style>
 </defs>
 <g id="Layer">
  <metadata id="CorelCorpID_0Corel-Layer"/>
  <g id="Blog">
   <polygon id="Backgrond" class="fil0" points="0,0 1000,0 1000,1000 0,1000 "/>
   <path id="Icon" class="fil1" d="M801.86 187.51c-31.86,0 -61.25,18.12 -75,46.25l-88.74 177.49c-8.74,17.51 -13.14,36.26 -13.14,55.63l0.03 283.11c0,34.37 28.13,62.5 62.5,62.5l249.99 0c34.37,0 62.5,-28.13 62.5,-62.5l0 -249.99c0,-34.37 -28.13,-62.5 -62.5,-62.5l-125.01 0 64.37 -128.74c28.13,-55.63 -12.5,-121.25 -75,-121.25zm-624.98 0c-31.87,0 -61.25,18.12 -75,46.25l-88.75 177.49c-8.74,17.51 -13.13,36.26 -13.13,55.63l0 283.11c0,34.37 28.13,62.5 62.5,62.5l249.99 0c34.37,0 62.5,-28.13 62.5,-62.5l0 -249.99c0,-34.37 -28.13,-62.5 -62.5,-62.5l-124.98 0 64.37 -128.74c28.13,-55.63 -12.5,-121.25 -75,-121.25z"/>
  </g>
 </g>
</svg>
