<?xml version="1.0" encoding="UTF-8"?>
<!DOCTYPE svg PUBLIC "-//W3C//DTD SVG 1.1//EN" "http://www.w3.org/Graphics/SVG/1.1/DTD/svg11.dtd">
<!-- Creator: CorelDRAW 2019 (64-Bit) -->
<svg xmlns="http://www.w3.org/2000/svg" xml:space="preserve" width="1000px" height="1000px" version="1.1" style="shape-rendering:geometricPrecision; text-rendering:geometricPrecision; image-rendering:optimizeQuality; fill-rule:evenodd; clip-rule:evenodd"
viewBox="0 0 1000 1000"
 xmlns:xlink="http://www.w3.org/1999/xlink"
 xmlns:xodm="http://www.corel.com/coreldraw/odm/2003">
 <defs>
  <style type="text/css">
   <![CDATA[
    .fil0 {fill:#212121;fill-rule:nonzero}
   ]]>
  </style>
 </defs>
 <g id="Layer">
  <metadata id="CorelCorpID_0Corel-Layer"/>
  <g id="Instagram">
   <path class="fil0" d="M500 0c-135.79,0 -152.82,0.58 -206.15,3.01 -53.22,2.43 -89.56,10.88 -121.37,23.24 -32.88,12.78 -60.76,29.87 -88.56,57.67 -27.8,27.8 -44.89,55.68 -57.67,88.56 -12.36,31.8 -20.81,68.15 -23.24,121.37 -2.43,53.33 -3.01,70.36 -3.01,206.15 0,135.79 0.58,152.82 3.01,206.15 2.43,53.22 10.88,89.57 23.24,121.37 12.78,32.88 29.87,60.76 57.67,88.56 27.8,27.8 55.68,44.89 88.56,57.67 31.81,12.36 68.15,20.81 121.37,23.24 53.33,2.43 70.36,3.01 206.15,3.01 135.79,0 152.82,-0.58 206.15,-3.01 53.22,-2.43 89.57,-10.88 121.37,-23.24 32.88,-12.78 60.76,-29.87 88.56,-57.67 27.8,-27.8 44.89,-55.68 57.67,-88.56 12.36,-31.8 20.81,-68.15 23.24,-121.37 2.43,-53.33 3.01,-70.36 3.01,-206.15 0,-135.79 -0.58,-152.82 -3.01,-206.15 -2.43,-53.22 -10.88,-89.57 -23.24,-121.37 -12.78,-32.88 -29.87,-60.76 -57.67,-88.56 -27.8,-27.8 -55.68,-44.89 -88.56,-57.67 -31.8,-12.36 -68.15,-20.81 -121.37,-23.24 -53.33,-2.43 -70.36,-3.01 -206.15,-3.01l0 0zm0 90.09c133.51,0 149.32,0.51 202.04,2.92 48.75,2.22 75.23,10.36 92.85,17.21 23.33,9.07 39.99,19.91 57.49,37.4 17.49,17.5 28.33,34.16 37.4,57.49 6.85,17.62 14.99,44.1 17.21,92.85 2.41,52.72 2.92,68.53 2.92,202.04 0,133.51 -0.51,149.32 -2.92,202.04 -2.22,48.75 -10.36,75.23 -17.21,92.85 -9.07,23.33 -19.91,39.99 -37.4,57.49 -17.5,17.49 -34.16,28.33 -57.49,37.4 -17.62,6.85 -44.1,14.99 -92.85,17.21 -52.71,2.41 -68.52,2.92 -202.04,2.92 -133.52,0 -149.33,-0.51 -202.04,-2.92 -48.75,-2.22 -75.23,-10.36 -92.85,-17.21 -23.33,-9.07 -39.99,-19.91 -57.49,-37.4 -17.49,-17.5 -28.33,-34.16 -37.4,-57.49 -6.85,-17.62 -14.99,-44.1 -17.21,-92.85 -2.41,-52.72 -2.92,-68.53 -2.92,-202.04 0,-133.51 0.51,-149.32 2.92,-202.04 2.22,-48.75 10.36,-75.23 17.21,-92.85 9.07,-23.33 19.91,-39.99 37.4,-57.49 17.5,-17.49 34.16,-28.33 57.49,-37.4 17.62,-6.85 44.1,-14.99 92.85,-17.21 52.72,-2.41 68.53,-2.92 202.04,-2.92z"/>
   <path class="fil0" d="M500 666.67c-92.05,0 -166.67,-74.62 -166.67,-166.67 0,-92.05 74.62,-166.67 166.67,-166.67 92.05,0 166.67,74.62 166.67,166.67 0,92.05 -74.62,166.67 -166.67,166.67zm0 -423.43c-141.8,0 -256.76,114.96 -256.76,256.76 0,141.8 114.96,256.76 256.76,256.76 141.8,0 256.76,-114.96 256.76,-256.76 0,-141.8 -114.96,-256.76 -256.76,-256.76z"/>
   <path class="fil0" d="M826.9 233.1c0,33.14 -26.86,60 -60,60 -33.13,0 -60,-26.86 -60,-60 0,-33.14 26.87,-60 60,-60 33.14,0 60,26.86 60,60z"/>
  </g>
 </g>
</svg>
