<?xml version="1.0" standalone="no"?>
<!DOCTYPE svg PUBLIC "-//W3C//DTD SVG 20010904//EN"
 "http://www.w3.org/TR/2001/REC-SVG-20010904/DTD/svg10.dtd">
<svg version="1.0" xmlns="http://www.w3.org/2000/svg"
 width="700.000000pt" height="700.000000pt" viewBox="0 0 700.000000 700.000000"
 preserveAspectRatio="xMidYMid meet">
<metadata>
Created by potrace 1.11, written by Peter Selinger 2001-2013
</metadata>
<g transform="translate(0.000000,700.000000) scale(0.100000,-0.100000)"
fill="#000000" stroke="none">
<path d="M1216 5534 c-8 -7 -11 -157 -10 -475 l0 -464 52 0 52 -1 0 421 0 422
2198 1 c1208 0 2205 1 2215 1 14 1 17 10 17 51 0 33 -4 50 -12 51 -7 0 -1023
1 -2257 2 -1585 1 -2248 -1 -2255 -9z"/>
<path d="M3453 3793 c-3 -7 -6 -511 -7 -1120 l-1 -1108 -505 0 -505 0 -2 1065
c-2 586 -3 1078 -3 1093 0 27 -1 28 -52 25 l-51 -3 0 -1138 c0 -626 3 -1140 6
-1143 6 -6 1208 -6 1215 1 2 2 4 506 4 1120 l1 1115 508 0 509 0 0 -1089 0
-1088 49 -1 c31 -1 51 3 53 11 3 9 2 2200 -1 2257 -1 13 -75 15 -607 15 -474
0 -608 -3 -611 -12z"/>
</g>
</svg>
