<?xml version="1.0" standalone="no"?>
<!DOCTYPE svg PUBLIC "-//W3C//DTD SVG 20010904//EN"
 "http://www.w3.org/TR/2001/REC-SVG-20010904/DTD/svg10.dtd">
<svg version="1.0" xmlns="http://www.w3.org/2000/svg"
 width="700.000000pt" height="700.000000pt" viewBox="0 0 700.000000 700.000000"
 preserveAspectRatio="xMidYMid meet">
<metadata>
Created by potrace 1.11, written by Peter Selinger 2001-2013
</metadata>
<g transform="translate(0.000000,700.000000) scale(0.100000,-0.100000)"
fill="#000000" stroke="none">
<path d="M3278 6995 c-1 -1 -39 -5 -83 -9 -89 -7 -144 -13 -225 -26 -30 -5
-75 -12 -100 -15 -24 -4 -47 -8 -51 -10 -3 -2 -21 -7 -40 -10 -140 -24 -356
-89 -542 -161 -682 -265 -1268 -739 -1662 -1344 -117 -180 -193 -318 -261
-472 -24 -57 -49 -112 -54 -123 -45 -93 -150 -427 -176 -560 -2 -11 -10 -54
-19 -95 -29 -147 -36 -200 -52 -370 -15 -164 -8 -592 12 -711 2 -13 6 -46 9
-74 9 -78 23 -156 51 -285 31 -142 109 -393 175 -555 49 -123 173 -370 235
-468 30 -49 55 -90 55 -93 0 -3 4 -10 10 -17 5 -7 46 -64 91 -126 189 -268
408 -499 679 -716 92 -74 370 -265 386 -265 4 0 15 -6 23 -14 28 -25 302 -160
432 -214 260 -106 579 -193 834 -227 22 -2 56 -7 75 -10 186 -26 698 -27 838
0 16 3 104 15 147 20 108 14 374 80 540 134 559 182 1110 545 1505 990 36 41
70 79 76 85 32 34 188 246 249 341 219 336 406 779 481 1140 16 79 54 301 59
350 4 33 9 71 11 85 9 47 11 525 3 605 -15 165 -21 220 -24 225 -2 3 -6 30
-10 60 -9 75 -69 337 -98 435 -202 663 -569 1225 -1092 1672 -433 370 -994
646 -1540 758 -44 9 -89 19 -100 21 -11 2 -38 6 -60 9 -22 3 -51 7 -65 10 -13
2 -52 7 -86 11 -33 3 -74 8 -90 10 -32 5 -540 14 -546 9z m-215 -317 c80 -41
112 -92 108 -176 -2 -33 -72 -105 -138 -140 -76 -39 -183 -75 -313 -102 -474
-102 -862 -270 -1197 -521 -90 -68 -271 -225 -329 -285 -66 -70 -141 -153
-174 -193 -19 -23 -41 -49 -48 -57 -27 -28 -173 -238 -225 -322 -216 -349
-405 -812 -494 -1212 -8 -36 -17 -74 -19 -85 -3 -11 -13 -64 -22 -117 -9 -54
-19 -98 -23 -98 -11 0 0 387 16 535 14 131 17 159 20 179 2 11 6 38 9 59 3 20
9 54 12 75 3 20 15 79 26 131 11 51 21 101 23 110 2 9 15 57 29 106 215 763
640 1331 1287 1723 363 220 882 403 1218 429 42 3 77 7 79 8 7 6 118 -28 155
-47z m3403 -3233 c-7 -127 -12 -191 -22 -255 -3 -19 -7 -48 -9 -65 -5 -61 -37
-214 -71 -345 -217 -841 -752 -1662 -1354 -2075 -75 -51 -330 -191 -330 -180
0 2 -27 -7 -59 -20 -33 -13 -79 -26 -103 -30 -24 -4 -52 -9 -63 -11 -10 -2
-37 -6 -60 -9 -142 -19 -179 -40 -155 -85 16 -29 12 -75 -7 -92 -31 -27 -115
-46 -283 -64 -25 -3 -54 -7 -65 -9 -124 -25 -656 -26 -780 -1 -11 2 -47 7 -80
10 -33 4 -114 18 -180 32 -613 125 -1148 401 -1614 833 -108 99 -291 298 -291
316 0 6 3 6 8 0 8 -12 118 -105 171 -145 18 -14 38 -29 44 -35 67 -57 300
-227 442 -321 416 -278 824 -464 1091 -499 77 -10 194 -5 228 9 68 28 75 70
26 149 -80 128 -101 182 -102 263 -1 94 43 153 154 202 82 36 242 74 368 87
30 3 71 8 90 10 19 3 64 7 100 10 36 3 81 8 100 10 50 6 188 18 345 30 156 12
286 22 375 30 30 3 80 8 110 10 121 10 317 32 410 46 194 29 359 106 568 264
461 347 788 940 941 1710 17 83 33 170 36 195 3 25 8 59 10 75 2 17 4 40 4 53
1 12 4 22 7 22 3 0 3 -56 0 -125z"/>
</g>
</svg>
